<mxfile host="www.draw.io" modified="2019-11-13T10:54:12.469Z" agent="Mozilla/5.0 (Windows NT 10.0; WOW64) AppleWebKit/537.36 (KHTML, like Gecko) Chrome/78.0.3904.87 Safari/537.36" etag="1QlrPPdu8eBLYOdFDFVt" version="12.2.4" type="github" pages="1">
  <diagram id="bwR0MPHZC12A5jwAdn_Z" name="Page-1">
    <mxGraphModel dx="1408" dy="758" grid="1" gridSize="10" guides="1" tooltips="1" connect="1" arrows="1" fold="1" page="1" pageScale="1" pageWidth="827" pageHeight="1169" math="0" shadow="0">
      <root>
        <mxCell id="0"/>
        <mxCell id="1" parent="0"/>
        <mxCell id="ZqbOeCTGDKddQ_U7KF8V-23" value="" style="group" vertex="1" connectable="0" parent="1">
          <mxGeometry x="180" y="240" width="500" height="130" as="geometry"/>
        </mxCell>
        <mxCell id="ZqbOeCTGDKddQ_U7KF8V-1" value="" style="rounded=0;whiteSpace=wrap;html=1;" vertex="1" parent="ZqbOeCTGDKddQ_U7KF8V-23">
          <mxGeometry width="500" height="130" as="geometry"/>
        </mxCell>
        <mxCell id="ZqbOeCTGDKddQ_U7KF8V-7" value="清&lt;br&gt;洗&lt;br&gt;服&lt;br&gt;务" style="rounded=0;whiteSpace=wrap;html=1;verticalAlign=middle;flipV=0;flipH=0;" vertex="1" parent="ZqbOeCTGDKddQ_U7KF8V-23">
          <mxGeometry x="100" y="10" width="60" height="110" as="geometry"/>
        </mxCell>
        <mxCell id="ZqbOeCTGDKddQ_U7KF8V-8" value="容&lt;br&gt;错&lt;br&gt;服&lt;br&gt;务" style="rounded=0;whiteSpace=wrap;html=1;verticalAlign=middle;flipV=0;flipH=0;" vertex="1" parent="ZqbOeCTGDKddQ_U7KF8V-23">
          <mxGeometry x="180" y="10" width="60" height="110" as="geometry"/>
        </mxCell>
        <mxCell id="ZqbOeCTGDKddQ_U7KF8V-9" value="前&lt;br&gt;置&lt;br&gt;校&lt;br&gt;验" style="rounded=0;whiteSpace=wrap;html=1;verticalAlign=middle;flipV=0;flipH=0;" vertex="1" parent="ZqbOeCTGDKddQ_U7KF8V-23">
          <mxGeometry x="260" y="10" width="60" height="110" as="geometry"/>
        </mxCell>
        <mxCell id="ZqbOeCTGDKddQ_U7KF8V-10" value="入&lt;br&gt;库&lt;br&gt;服&lt;br&gt;务" style="rounded=0;whiteSpace=wrap;html=1;verticalAlign=middle;flipV=0;flipH=0;" vertex="1" parent="ZqbOeCTGDKddQ_U7KF8V-23">
          <mxGeometry x="340" y="10" width="60" height="110" as="geometry"/>
        </mxCell>
        <mxCell id="ZqbOeCTGDKddQ_U7KF8V-12" value="后&lt;br&gt;置&lt;br&gt;校&lt;br&gt;验" style="rounded=0;whiteSpace=wrap;html=1;verticalAlign=middle;flipV=0;flipH=0;" vertex="1" parent="ZqbOeCTGDKddQ_U7KF8V-23">
          <mxGeometry x="414" y="10" width="60" height="110" as="geometry"/>
        </mxCell>
        <mxCell id="ZqbOeCTGDKddQ_U7KF8V-21" value="业务服务" style="rounded=0;whiteSpace=wrap;html=1;" vertex="1" parent="ZqbOeCTGDKddQ_U7KF8V-23">
          <mxGeometry width="70" height="130" as="geometry"/>
        </mxCell>
        <mxCell id="ZqbOeCTGDKddQ_U7KF8V-25" value="" style="group" vertex="1" connectable="0" parent="1">
          <mxGeometry x="180" y="390" width="500" height="100" as="geometry"/>
        </mxCell>
        <mxCell id="ZqbOeCTGDKddQ_U7KF8V-14" value="" style="rounded=0;whiteSpace=wrap;html=1;" vertex="1" parent="ZqbOeCTGDKddQ_U7KF8V-25">
          <mxGeometry width="500" height="100" as="geometry"/>
        </mxCell>
        <mxCell id="ZqbOeCTGDKddQ_U7KF8V-15" value="SSO服务" style="rounded=0;whiteSpace=wrap;html=1;" vertex="1" parent="ZqbOeCTGDKddQ_U7KF8V-25">
          <mxGeometry x="130" y="20" width="120" height="60" as="geometry"/>
        </mxCell>
        <mxCell id="ZqbOeCTGDKddQ_U7KF8V-16" value="数据字典服务" style="rounded=0;whiteSpace=wrap;html=1;" vertex="1" parent="ZqbOeCTGDKddQ_U7KF8V-25">
          <mxGeometry x="320" y="20" width="120" height="60" as="geometry"/>
        </mxCell>
        <mxCell id="ZqbOeCTGDKddQ_U7KF8V-24" value="基础服务" style="rounded=0;whiteSpace=wrap;html=1;" vertex="1" parent="ZqbOeCTGDKddQ_U7KF8V-25">
          <mxGeometry width="70" height="100" as="geometry"/>
        </mxCell>
        <mxCell id="ZqbOeCTGDKddQ_U7KF8V-26" value="" style="rounded=0;whiteSpace=wrap;html=1;" vertex="1" parent="1">
          <mxGeometry x="690" y="240" width="120" height="250" as="geometry"/>
        </mxCell>
        <mxCell id="ZqbOeCTGDKddQ_U7KF8V-27" value="服务管理" style="rounded=0;whiteSpace=wrap;html=1;" vertex="1" parent="1">
          <mxGeometry x="690" y="240" width="120" height="50" as="geometry"/>
        </mxCell>
        <mxCell id="ZqbOeCTGDKddQ_U7KF8V-28" value="注册发现" style="rounded=0;whiteSpace=wrap;html=1;" vertex="1" parent="1">
          <mxGeometry x="700" y="300" width="100" height="40" as="geometry"/>
        </mxCell>
        <mxCell id="ZqbOeCTGDKddQ_U7KF8V-29" value="日志管理" style="rounded=0;whiteSpace=wrap;html=1;" vertex="1" parent="1">
          <mxGeometry x="700" y="346" width="100" height="40" as="geometry"/>
        </mxCell>
        <mxCell id="ZqbOeCTGDKddQ_U7KF8V-30" value="监控报警" style="rounded=0;whiteSpace=wrap;html=1;" vertex="1" parent="1">
          <mxGeometry x="700" y="393" width="100" height="40" as="geometry"/>
        </mxCell>
        <mxCell id="ZqbOeCTGDKddQ_U7KF8V-31" value="" style="rounded=0;whiteSpace=wrap;html=1;" vertex="1" parent="1">
          <mxGeometry x="50" y="240" width="120" height="250" as="geometry"/>
        </mxCell>
        <mxCell id="ZqbOeCTGDKddQ_U7KF8V-32" value="基础组件" style="rounded=0;whiteSpace=wrap;html=1;" vertex="1" parent="1">
          <mxGeometry x="50" y="240" width="120" height="50" as="geometry"/>
        </mxCell>
        <mxCell id="ZqbOeCTGDKddQ_U7KF8V-33" value="熔断/降级组件" style="rounded=0;whiteSpace=wrap;html=1;" vertex="1" parent="1">
          <mxGeometry x="60" y="305" width="100" height="48" as="geometry"/>
        </mxCell>
        <mxCell id="ZqbOeCTGDKddQ_U7KF8V-34" value="限流组件" style="rounded=0;whiteSpace=wrap;html=1;" vertex="1" parent="1">
          <mxGeometry x="60" y="365" width="100" height="48" as="geometry"/>
        </mxCell>
        <mxCell id="ZqbOeCTGDKddQ_U7KF8V-35" value="" style="rounded=0;whiteSpace=wrap;html=1;" vertex="1" parent="1">
          <mxGeometry x="60" y="425" width="100" height="48" as="geometry"/>
        </mxCell>
        <mxCell id="ZqbOeCTGDKddQ_U7KF8V-36" value="······" style="rounded=0;whiteSpace=wrap;html=1;" vertex="1" parent="1">
          <mxGeometry x="700" y="440" width="100" height="40" as="geometry"/>
        </mxCell>
      </root>
    </mxGraphModel>
  </diagram>
</mxfile>
